<?xml version="1.0" encoding="UTF-8" standalone="no"?><svg xmlns="http://www.w3.org/2000/svg" xmlns:xlink="http://www.w3.org/1999/xlink" contentScriptType="application/ecmascript" contentStyleType="text/css" height="246px" preserveAspectRatio="none" style="width:398px;height:246px;" version="1.1" viewBox="0 0 398 246" width="398px" zoomAndPan="magnify"><defs><filter height="300%" id="fstq3pknbc7x0" width="300%" x="-1" y="-1"><feGaussianBlur result="blurOut" stdDeviation="2.0"/><feColorMatrix in="blurOut" result="blurOut2" type="matrix" values="0 0 0 0 0 0 0 0 0 0 0 0 0 0 0 0 0 0 .4 0"/><feOffset dx="4.0" dy="4.0" in="blurOut2" result="blurOut3"/><feBlend in="SourceGraphic" in2="blurOut3" mode="normal"/></filter></defs><g><!--MD5=[0c58d6553b821c8b0fb5947a3a448d78]
cluster DIP 高层模块依赖低层模块--><polygon fill="#DDDDDD" filter="url(#fstq3pknbc7x0)" points="22,24,205,24,212,49.1201,376,49.1201,376,234,22,234,22,24" style="stroke: #000000; stroke-width: 1.5;"/><line style="stroke: #000000; stroke-width: 1.5;" x1="22" x2="212" y1="49.1201" y2="49.1201"/><text fill="#000000" font-family="sans-serif" font-size="14" font-weight="bold" lengthAdjust="spacingAndGlyphs" textLength="177" x="26" y="42.0439">DIP 高层模块依赖低层模块</text><!--MD5=[e805510626ebcbe086d9d477bb0633b0]
class 高层模块--><rect fill="#FEFECE" filter="url(#fstq3pknbc7x0)" height="48" id="高层模块" style="stroke: #A80036; stroke-width: 1.5;" width="80" x="165" y="62"/><ellipse cx="180" cy="78" fill="#ADD1B2" rx="11" ry="11" style="stroke: #A80036; stroke-width: 1.0;"/><path d="M178.5781,83.3594 Q176.7188,83.3594 175.625,81.9688 Q174.5313,80.5781 174.5313,77.5938 Q174.5313,75.0625 175.6953,73.4063 Q176.8594,71.75 178.8438,71.75 Q180.3125,71.75 180.7813,71.875 Q181.25,72.0781 181.25,72.0781 Q181.25,72.0781 181.25,72.0078 Q181.25,71.9375 181.8594,71.0156 L182.9063,74.6719 L181.5781,75.0781 Q181.1094,73.5313 180.4453,72.8672 Q179.7813,72.2031 178.7188,72.2031 Q178.3281,72.2031 177.5625,73.7344 Q176.7969,75.2656 176.7969,77.5156 Q176.7969,79.9844 177.4609,81.375 Q178.125,82.7656 178.6563,82.7656 Q179.7188,82.7656 180.4766,82 Q181.2344,81.2344 181.5781,79.5781 L182.9063,80.1719 Q182.5781,81.5781 181.6797,82.4688 Q180.7813,83.3594 178.5781,83.3594 Z "/><text fill="#000000" font-family="sans-serif" font-size="12" lengthAdjust="spacingAndGlyphs" textLength="48" x="194" y="83.5576">高层模块</text><line style="stroke: #A80036; stroke-width: 1.5;" x1="166" x2="244" y1="94" y2="94"/><line style="stroke: #A80036; stroke-width: 1.5;" x1="166" x2="244" y1="102" y2="102"/><!--MD5=[5fbefed8e7946a39181703ff92ef40d8]
class 数据库连接--><rect fill="#FEFECE" filter="url(#fstq3pknbc7x0)" height="48" id="数据库连接" style="stroke: #A80036; stroke-width: 1.5;" width="92" x="38" y="170"/><ellipse cx="53" cy="186" fill="#ADD1B2" rx="11" ry="11" style="stroke: #A80036; stroke-width: 1.0;"/><path d="M51.5781,191.3594 Q49.7188,191.3594 48.625,189.9688 Q47.5313,188.5781 47.5313,185.5938 Q47.5313,183.0625 48.6953,181.4063 Q49.8594,179.75 51.8438,179.75 Q53.3125,179.75 53.7813,179.875 Q54.25,180.0781 54.25,180.0781 Q54.25,180.0781 54.25,180.0078 Q54.25,179.9375 54.8594,179.0156 L55.9063,182.6719 L54.5781,183.0781 Q54.1094,181.5313 53.4453,180.8672 Q52.7813,180.2031 51.7188,180.2031 Q51.3281,180.2031 50.5625,181.7344 Q49.7969,183.2656 49.7969,185.5156 Q49.7969,187.9844 50.4609,189.375 Q51.125,190.7656 51.6563,190.7656 Q52.7188,190.7656 53.4766,190 Q54.2344,189.2344 54.5781,187.5781 L55.9063,188.1719 Q55.5781,189.5781 54.6797,190.4688 Q53.7813,191.3594 51.5781,191.3594 Z "/><text fill="#000000" font-family="sans-serif" font-size="12" lengthAdjust="spacingAndGlyphs" textLength="60" x="67" y="191.5576">数据库连接</text><line style="stroke: #A80036; stroke-width: 1.5;" x1="39" x2="129" y1="202" y2="202"/><line style="stroke: #A80036; stroke-width: 1.5;" x1="39" x2="129" y1="210" y2="210"/><!--MD5=[9cc5ca38e8991278a7dad67985281dce]
class 文件操作--><rect fill="#FEFECE" filter="url(#fstq3pknbc7x0)" height="48" id="文件操作" style="stroke: #A80036; stroke-width: 1.5;" width="80" x="165" y="170"/><ellipse cx="180" cy="186" fill="#ADD1B2" rx="11" ry="11" style="stroke: #A80036; stroke-width: 1.0;"/><path d="M178.5781,191.3594 Q176.7188,191.3594 175.625,189.9688 Q174.5313,188.5781 174.5313,185.5938 Q174.5313,183.0625 175.6953,181.4063 Q176.8594,179.75 178.8438,179.75 Q180.3125,179.75 180.7813,179.875 Q181.25,180.0781 181.25,180.0781 Q181.25,180.0781 181.25,180.0078 Q181.25,179.9375 181.8594,179.0156 L182.9063,182.6719 L181.5781,183.0781 Q181.1094,181.5313 180.4453,180.8672 Q179.7813,180.2031 178.7188,180.2031 Q178.3281,180.2031 177.5625,181.7344 Q176.7969,183.2656 176.7969,185.5156 Q176.7969,187.9844 177.4609,189.375 Q178.125,190.7656 178.6563,190.7656 Q179.7188,190.7656 180.4766,190 Q181.2344,189.2344 181.5781,187.5781 L182.9063,188.1719 Q182.5781,189.5781 181.6797,190.4688 Q180.7813,191.3594 178.5781,191.3594 Z "/><text fill="#000000" font-family="sans-serif" font-size="12" lengthAdjust="spacingAndGlyphs" textLength="48" x="194" y="191.5576">文件操作</text><line style="stroke: #A80036; stroke-width: 1.5;" x1="166" x2="244" y1="202" y2="202"/><line style="stroke: #A80036; stroke-width: 1.5;" x1="166" x2="244" y1="210" y2="210"/><!--MD5=[e4f06909a512db1681c74aa5292960d7]
class 短信模块--><rect fill="#FEFECE" filter="url(#fstq3pknbc7x0)" height="48" id="短信模块" style="stroke: #A80036; stroke-width: 1.5;" width="80" x="280" y="170"/><ellipse cx="295" cy="186" fill="#ADD1B2" rx="11" ry="11" style="stroke: #A80036; stroke-width: 1.0;"/><path d="M293.5781,191.3594 Q291.7188,191.3594 290.625,189.9688 Q289.5313,188.5781 289.5313,185.5938 Q289.5313,183.0625 290.6953,181.4063 Q291.8594,179.75 293.8438,179.75 Q295.3125,179.75 295.7813,179.875 Q296.25,180.0781 296.25,180.0781 Q296.25,180.0781 296.25,180.0078 Q296.25,179.9375 296.8594,179.0156 L297.9063,182.6719 L296.5781,183.0781 Q296.1094,181.5313 295.4453,180.8672 Q294.7813,180.2031 293.7188,180.2031 Q293.3281,180.2031 292.5625,181.7344 Q291.7969,183.2656 291.7969,185.5156 Q291.7969,187.9844 292.4609,189.375 Q293.125,190.7656 293.6563,190.7656 Q294.7188,190.7656 295.4766,190 Q296.2344,189.2344 296.5781,187.5781 L297.9063,188.1719 Q297.5781,189.5781 296.6797,190.4688 Q295.7813,191.3594 293.5781,191.3594 Z "/><text fill="#000000" font-family="sans-serif" font-size="12" lengthAdjust="spacingAndGlyphs" textLength="48" x="309" y="191.5576">短信模块</text><line style="stroke: #A80036; stroke-width: 1.5;" x1="281" x2="359" y1="202" y2="202"/><line style="stroke: #A80036; stroke-width: 1.5;" x1="281" x2="359" y1="210" y2="210"/><!--MD5=[bba65ca4d6c4bb56cdd7db11ddf3007d]
link 高层模块 to 数据库连接--><path d="M178.745,110 C163.312,123.52 143.447,140.922 125.896,156.2977 " fill="none" id="高层模块-&gt;数据库连接" style="stroke: #A80036; stroke-width: 1.0;"/><polygon fill="none" points="130.278,161.7648,110.622,169.6784,121.053,151.2341,130.278,161.7648" style="stroke: #A80036; stroke-width: 1.0;"/><!--MD5=[828c9512e63e96d3242fd1a442875aa4]
link 高层模块 to 文件操作--><path d="M205,110 C205,121.588 205,136.029 205,149.601 " fill="none" id="高层模块-&gt;文件操作" style="stroke: #A80036; stroke-width: 1.0;"/><polygon fill="none" points="212,149.678,205,169.6784,198,149.678,212,149.678" style="stroke: #A80036; stroke-width: 1.0;"/><!--MD5=[954e3aad668456d04b931a2ff02d04db]
link 高层模块 to 短信模块--><path d="M229.953,110 C244.546,123.451 263.308,140.745 279.926,156.0622 " fill="none" id="高层模块-&gt;短信模块" style="stroke: #A80036; stroke-width: 1.0;"/><polygon fill="none" points="284.737,150.9763,294.698,169.6784,275.248,161.2705,284.737,150.9763" style="stroke: #A80036; stroke-width: 1.0;"/><!--MD5=[7840da033a2d4e1e84cae66932eceb15]
@startuml
package "DIP 高层模块依赖低层模块" #DDDDDD {
    Class 高层模块 {
    }

    Class 数据库连接 {
    }

    Class 文件操作 {
    }

    Class 短信模块 {
    }

    高层模块 - -|> 数据库连接
    高层模块 - -|> 文件操作
    高层模块 - -|> 短信模块
}


@enduml

PlantUML version 1.2020.10(Sun May 17 17:35:57 CST 2020)
(GPL source distribution)
Java Runtime: Java(TM) SE Runtime Environment
JVM: Java HotSpot(TM) Client VM
Java Version: 1.8.0_91-b14
Operating System: Windows 10
Default Encoding: GBK
Language: zh
Country: CN
--></g></svg>