<?xml version="1.0" encoding="UTF-8" standalone="no"?><svg xmlns="http://www.w3.org/2000/svg" xmlns:xlink="http://www.w3.org/1999/xlink" contentScriptType="application/ecmascript" contentStyleType="text/css" height="359px" preserveAspectRatio="none" style="width:558px;height:359px;" version="1.1" viewBox="0 0 558 359" width="558px" zoomAndPan="magnify"><defs><filter height="300%" id="fgmxdou9pnn0t" width="300%" x="-1" y="-1"><feGaussianBlur result="blurOut" stdDeviation="2.0"/><feColorMatrix in="blurOut" result="blurOut2" type="matrix" values="0 0 0 0 0 0 0 0 0 0 0 0 0 0 0 0 0 0 .4 0"/><feOffset dx="4.0" dy="4.0" in="blurOut2" result="blurOut3"/><feBlend in="SourceGraphic" in2="blurOut3" mode="normal"/></filter></defs><g><line style="stroke: #A80036; stroke-width: 1.0; stroke-dasharray: 5.0,5.0;" x1="21" x2="21" y1="41.1201" y2="316.4009"/><line style="stroke: #A80036; stroke-width: 1.0; stroke-dasharray: 5.0,5.0;" x1="108" x2="108" y1="41.1201" y2="316.4009"/><line style="stroke: #A80036; stroke-width: 1.0; stroke-dasharray: 5.0,5.0;" x1="195.5" x2="195.5" y1="41.1201" y2="316.4009"/><line style="stroke: #A80036; stroke-width: 1.0; stroke-dasharray: 5.0,5.0;" x1="285.5" x2="285.5" y1="41.1201" y2="316.4009"/><rect fill="#FEFECE" filter="url(#fgmxdou9pnn0t)" height="33.1201" style="stroke: #A80036; stroke-width: 1.5;" width="23" x="8" y="3"/><text fill="#000000" font-family="sans-serif" font-size="14" lengthAdjust="spacingAndGlyphs" textLength="9" x="15" y="26.0439">A</text><rect fill="#FEFECE" filter="url(#fgmxdou9pnn0t)" height="33.1201" style="stroke: #A80036; stroke-width: 1.5;" width="23" x="8" y="315.4009"/><text fill="#000000" font-family="sans-serif" font-size="14" lengthAdjust="spacingAndGlyphs" textLength="9" x="15" y="338.4448">A</text><rect fill="#FEFECE" filter="url(#fgmxdou9pnn0t)" height="33.1201" style="stroke: #A80036; stroke-width: 1.5;" width="23" x="95" y="3"/><text fill="#000000" font-family="sans-serif" font-size="14" lengthAdjust="spacingAndGlyphs" textLength="9" x="102" y="26.0439">B</text><rect fill="#FEFECE" filter="url(#fgmxdou9pnn0t)" height="33.1201" style="stroke: #A80036; stroke-width: 1.5;" width="23" x="95" y="315.4009"/><text fill="#000000" font-family="sans-serif" font-size="14" lengthAdjust="spacingAndGlyphs" textLength="9" x="102" y="338.4448">B</text><rect fill="#FEFECE" filter="url(#fgmxdou9pnn0t)" height="33.1201" style="stroke: #A80036; stroke-width: 1.5;" width="24" x="181.5" y="3"/><text fill="#000000" font-family="sans-serif" font-size="14" lengthAdjust="spacingAndGlyphs" textLength="10" x="188.5" y="26.0439">C</text><rect fill="#FEFECE" filter="url(#fgmxdou9pnn0t)" height="33.1201" style="stroke: #A80036; stroke-width: 1.5;" width="24" x="181.5" y="315.4009"/><text fill="#000000" font-family="sans-serif" font-size="14" lengthAdjust="spacingAndGlyphs" textLength="10" x="188.5" y="338.4448">C</text><rect fill="#FEFECE" filter="url(#fgmxdou9pnn0t)" height="33.1201" style="stroke: #A80036; stroke-width: 1.5;" width="24" x="271.5" y="3"/><text fill="#000000" font-family="sans-serif" font-size="14" lengthAdjust="spacingAndGlyphs" textLength="10" x="278.5" y="26.0439">D</text><rect fill="#FEFECE" filter="url(#fgmxdou9pnn0t)" height="33.1201" style="stroke: #A80036; stroke-width: 1.5;" width="24" x="271.5" y="315.4009"/><text fill="#000000" font-family="sans-serif" font-size="14" lengthAdjust="spacingAndGlyphs" textLength="10" x="278.5" y="338.4448">D</text><polygon fill="#A80036" points="96.5,75.8745,106.5,79.8745,96.5,83.8745,100.5,79.8745" style="stroke: #A80036; stroke-width: 1.0;"/><line style="stroke: #A80036; stroke-width: 1.0;" x1="21.5" x2="102.5" y1="79.8745" y2="79.8745"/><text fill="#000000" font-family="sans-serif" font-size="13" font-weight="bold" lengthAdjust="spacingAndGlyphs" textLength="7" x="28.5" y="75.0181">1</text><text fill="#000000" font-family="sans-serif" font-size="13" lengthAdjust="spacingAndGlyphs" textLength="52" x="39.5" y="75.0181">A 调用 B</text><path d="M113,56.1201 L113,83.1201 L186,83.1201 L186,66.1201 L176,56.1201 L113,56.1201 " fill="#FBFB77" filter="url(#fgmxdou9pnn0t)" style="stroke: #A80036; stroke-width: 1.0;"/><path d="M176,56.1201 L176,66.1201 L186,66.1201 L176,56.1201 " fill="#FBFB77" style="stroke: #A80036; stroke-width: 1.0;"/><text fill="#000000" font-family="sans-serif" font-size="13" lengthAdjust="spacingAndGlyphs" textLength="52" x="119" y="76.0181">这是注释</text><polygon fill="#A80036" points="183.5,117.6289,193.5,121.6289,183.5,125.6289,187.5,121.6289" style="stroke: #A80036; stroke-width: 1.0;"/><line style="stroke: #A80036; stroke-width: 1.0;" x1="108.5" x2="189.5" y1="121.6289" y2="121.6289"/><text fill="#000000" font-family="sans-serif" font-size="13" font-weight="bold" lengthAdjust="spacingAndGlyphs" textLength="7" x="115.5" y="116.7725">2</text><text fill="#000000" font-family="sans-serif" font-size="13" lengthAdjust="spacingAndGlyphs" textLength="52" x="126.5" y="116.7725">C 调用 B</text><path d="M13,97.8745 L13,124.8745 L99,124.8745 L99,107.8745 L89,97.8745 L13,97.8745 " fill="#FBFB77" filter="url(#fgmxdou9pnn0t)" style="stroke: #A80036; stroke-width: 1.0;"/><path d="M89,97.8745 L89,107.8745 L99,107.8745 L89,97.8745 " fill="#FBFB77" style="stroke: #A80036; stroke-width: 1.0;"/><text fill="#000000" font-family="sans-serif" font-size="13" lengthAdjust="spacingAndGlyphs" textLength="65" x="19" y="117.7725">左边的注释</text><line style="stroke: #A80036; stroke-width: 1.0; stroke-dasharray: 2.0,2.0;" x1="195.5" x2="237.5" y1="158.3833" y2="158.3833"/><line style="stroke: #A80036; stroke-width: 1.0; stroke-dasharray: 2.0,2.0;" x1="237.5" x2="237.5" y1="158.3833" y2="171.3833"/><line style="stroke: #A80036; stroke-width: 1.0; stroke-dasharray: 2.0,2.0;" x1="196.5" x2="237.5" y1="171.3833" y2="171.3833"/><polygon fill="#A80036" points="206.5,167.3833,196.5,171.3833,206.5,175.3833,202.5,171.3833" style="stroke: #A80036; stroke-width: 1.0;"/><text fill="#000000" font-family="sans-serif" font-size="13" font-weight="bold" lengthAdjust="spacingAndGlyphs" textLength="7" x="202.5" y="153.5269">3</text><text fill="#000000" font-family="sans-serif" font-size="13" lengthAdjust="spacingAndGlyphs" textLength="65" x="213.5" y="153.5269">C 调用自己</text><path d="M290,141.1289 L290,168.1289 L546,168.1289 L546,151.1289 L536,141.1289 L290,141.1289 " fill="#FBFB77" filter="url(#fgmxdou9pnn0t)" style="stroke: #A80036; stroke-width: 1.0;"/><path d="M536,141.1289 L536,151.1289 L546,151.1289 L536,141.1289 " fill="#FBFB77" style="stroke: #A80036; stroke-width: 1.0;"/><text fill="#000000" font-family="sans-serif" font-size="13" lengthAdjust="spacingAndGlyphs" textLength="235" x="296" y="161.0269">--&gt; 代表是虚线，autonumber 代表有序号</text><polygon fill="#A80036" points="273.5,199.1377,283.5,203.1377,273.5,207.1377,277.5,203.1377" style="stroke: #A80036; stroke-width: 1.0;"/><line style="stroke: #A80036; stroke-width: 1.0;" x1="195.5" x2="279.5" y1="203.1377" y2="203.1377"/><text fill="#000000" font-family="sans-serif" font-size="13" font-weight="bold" lengthAdjust="spacingAndGlyphs" textLength="7" x="202.5" y="198.2813">4</text><text fill="#000000" font-family="sans-serif" font-size="13" lengthAdjust="spacingAndGlyphs" textLength="48" x="213.5" y="198.2813">C 调用D</text><polygon fill="#A80036" points="206.5,230.8921,196.5,234.8921,206.5,238.8921,202.5,234.8921" style="stroke: #A80036; stroke-width: 1.0;"/><line style="stroke: #A80036; stroke-width: 1.0; stroke-dasharray: 2.0,2.0;" x1="200.5" x2="284.5" y1="234.8921" y2="234.8921"/><text fill="#000000" font-family="sans-serif" font-size="13" font-weight="bold" lengthAdjust="spacingAndGlyphs" textLength="7" x="212.5" y="230.0356">5</text><text fill="#000000" font-family="sans-serif" font-size="13" lengthAdjust="spacingAndGlyphs" textLength="52" x="223.5" y="230.0356">D 调用 C</text><polygon fill="#A80036" points="119.5,262.6465,109.5,266.6465,119.5,270.6465,115.5,266.6465" style="stroke: #A80036; stroke-width: 1.0;"/><line style="stroke: #A80036; stroke-width: 1.0; stroke-dasharray: 2.0,2.0;" x1="113.5" x2="284.5" y1="266.6465" y2="266.6465"/><text fill="#000000" font-family="sans-serif" font-size="13" font-weight="bold" lengthAdjust="spacingAndGlyphs" textLength="7" x="125.5" y="261.79">6</text><text fill="#000000" font-family="sans-serif" font-size="13" lengthAdjust="spacingAndGlyphs" textLength="52" x="136.5" y="261.79">D 调用 B</text><polygon fill="#A80036" points="32.5,294.4009,22.5,298.4009,32.5,302.4009,28.5,298.4009" style="stroke: #A80036; stroke-width: 1.0;"/><line style="stroke: #A80036; stroke-width: 1.0; stroke-dasharray: 2.0,2.0;" x1="26.5" x2="284.5" y1="298.4009" y2="298.4009"/><text fill="#000000" font-family="sans-serif" font-size="13" font-weight="bold" lengthAdjust="spacingAndGlyphs" textLength="7" x="38.5" y="293.5444">7</text><text fill="#000000" font-family="sans-serif" font-size="13" lengthAdjust="spacingAndGlyphs" textLength="52" x="49.5" y="293.5444">D 调用 A</text><!--MD5=[5e9ed422e715f02e6a91f89de9f040b6]
@startuml
autonumber
participant A
A -> B: A 调用 B
note right: 这是注释

B -> C: C 调用 B
note left: 左边的注释
C - -> C: C 调用自己
note right: - -> 代表是虚线，autonumber 代表有序号

C -> D: C 调用D

D - -> C: D 调用 C
D - -> B: D 调用 B
D - -> A: D 调用 A

@enduml

PlantUML version 1.2020.10(Sun May 17 17:35:57 CST 2020)
(GPL source distribution)
Java Runtime: Java(TM) SE Runtime Environment
JVM: Java HotSpot(TM) Client VM
Java Version: 1.8.0_91-b14
Operating System: Windows 10
Default Encoding: GBK
Language: zh
Country: CN
--></g></svg>